<?xml version="1.0" encoding="utf-8"?>
<!-- Generator: Adobe Illustrator 18.0.0, SVG Export Plug-In . SVG Version: 6.00 Build 0)  -->
<!DOCTYPE svg PUBLIC "-//W3C//DTD SVG 1.1//EN" "http://www.w3.org/Graphics/SVG/1.1/DTD/svg11.dtd">
<svg version="1.1" id="Layer_1" xmlns="http://www.w3.org/2000/svg" xmlns:xlink="http://www.w3.org/1999/xlink" x="0px" y="0px"
	 viewBox="0 0 1500 878.2" enable-background="new 0 0 1500 878.2" xml:space="preserve">
<path fill="#58C1EF" d="M1134,463.6c-5.5,1.2-12.4,1.9-20.9,1.9H806.6l-5.2,26.9l29.9,61.7l291.8,0.9l19-63.4L1134,463.6z"/>
<polygon fill="#F36E44" points="1226.2,465.5 1173.9,435.5 1196.9,500.3 1218.1,468.5 "/>
<path fill="#EEEEEE" d="M1140.3,416.2l33.6,19.2l-4.5-12.7l-60.3-45.6l24.9,86.4C1175.6,454.6,1140.3,416.2,1140.3,416.2z"/>
<path fill="#F05323" d="M1201.8,514.2l-3.5,22.3l-17,8.2c-4.1,1.4-9.8,3-17.2,4.5l32.8-48.9L1201.8,514.2z"/>
<path fill="#58C1EF" d="M1196.8,500.3l-32.8,48.9c-8,1.6-18.1,3.2-30.4,4.1l-14.3-0.5l3.7,2.2l7.7-39.1l11.3-24.3l-7.3-25.4
	c0-0.1,0-0.2-0.1-0.4l-0.7-2.3c40.8-8.8,7.7-45.9,6.3-47.3c0,0,0,0,0,0l33.6,19.3L1196.8,500.3z"/>
<polygon fill="#EEEEEE" points="806.6,465.5 840.1,291.5 741.6,402 738.6,554.1 770.5,554.1 770.5,465.5 "/>
<polygon fill="#58C1EF" points="806.6,465.5 770.5,465.5 770.5,554.1 831.2,554.1 801.4,492.4 "/>
<path opacity="0.5" fill="#44B3E6" d="M834.4,514.7c-15.2,0-28.2-11.5-29.6-26.7c-0.5-5.8-0.3-11.7,0.7-17l1.1-5.6h-36v88.7h52.2
	l0.1,0.3l300.2,0.7l0,0l0,0v0l0.9-2.1l9.7,0.3c12.2-0.9,22.3-2.4,30.4-4.1l32.8-48.9l-22.9-64.8l-33.6-19.3c0,0,0,0,0,0
	c1.3,1.4,34.5,38.5-6.3,47.3l0.7,2.3c0,0.1,0.1,0.2,0.1,0.4c1.9,6.7,2.8,13.5,2.7,20.4c-0.2,15.7-12.9,28.4-28.6,28.3L834.4,514.7z"
	/>
<g>
	<path fill="#58C1EF" d="M324.8,730.1H295l-35.2-103.6h29.8l20.2,62.6l20.2-62.6h27.9l20.2,62.6l20.2-62.6h30l-35.2,103.6h-30
		L344,673.7L324.8,730.1z"/>
	<path fill="#58C1EF" d="M534.2,715.1c-11.7,11-25.4,16.6-41.1,16.6c-15.7,0-28.7-4.8-39-14.5c-10.3-9.7-15.4-22.7-15.4-39
		c0-16.3,5.2-29.3,15.7-38.9c10.5-9.6,22.8-14.4,37.1-14.4c14.2,0,26.3,4.3,36.3,12.9c9.9,8.6,14.9,20.4,14.9,35.4v15.4h-75.5
		c0.9,5.6,3.9,10.3,8.9,13.9c5,3.6,10.7,5.4,16.9,5.4c10.1,0,18.5-3.4,25-10.2L534.2,715.1z M506.5,653.7c-4-3.3-8.8-5-14.5-5
		c-5.7,0-10.9,1.7-15.7,5.2c-4.7,3.5-7.5,8.2-8.3,14.1h45.4C512.8,661.8,510.5,657.1,506.5,653.7z"/>
	<path fill="#58C1EF" d="M653.2,715.1c-11.7,11-25.4,16.6-41.1,16.6c-15.7,0-28.7-4.8-39-14.5c-10.3-9.7-15.4-22.7-15.4-39
		c0-16.3,5.2-29.3,15.7-38.9c10.5-9.6,22.8-14.4,37.1-14.4c14.2,0,26.3,4.3,36.3,12.9c9.9,8.6,14.9,20.4,14.9,35.4v15.4h-75.5
		c0.9,5.6,3.9,10.3,8.9,13.9c5,3.6,10.7,5.4,16.9,5.4c10.1,0,18.5-3.4,25-10.2L653.2,715.1z M625.5,653.7c-4-3.3-8.8-5-14.5-5
		c-5.7,0-10.9,1.7-15.7,5.2c-4.7,3.5-7.5,8.2-8.3,14.1h45.4C631.8,661.8,629.4,657.1,625.5,653.7z"/>
	<path fill="#58C1EF" d="M723.9,731.7c-12.3,0-23.2-5.2-32.8-15.6c-9.6-10.4-14.4-23.3-14.4-38.7c0-15.4,4.7-28,14.1-37.8
		c9.4-9.8,20.3-14.7,32.9-14.7c12.6,0,22.8,4.4,30.8,13.3v-50.8h28.9v142.8h-28.9v-13.7C746.4,726.6,736.2,731.7,723.9,731.7z
		 M705.7,678.5c0,8.3,2.5,15.2,7.5,20.5c5,5.3,10.8,8,17.5,8c6.7,0,12.3-2.7,17-8c4.7-5.3,7-12.2,7-20.6c0-8.4-2.3-15.4-7-21
		c-4.7-5.6-10.4-8.4-17.2-8.4s-12.6,2.8-17.5,8.5C708.2,663.2,705.7,670.2,705.7,678.5z"/>
</g>
<g>
	<path fill="#616262" d="M888.6,697.9c0,10.2-3.8,18.4-11.3,24.5c-7.5,6.2-17,9.2-28.6,9.2c-7.7,0-15.7-1.4-24.1-4.1
		c-8.3-2.8-15.9-6.8-22.5-12.2l12.7-18.1c10.8,8.3,22.3,12.5,34.5,12.5c3.7,0,6.7-0.7,8.9-2.2c2.2-1.5,3.3-3.4,3.3-5.9
		c0-2.4-1.5-4.7-4.5-6.7c-3-2.1-7.4-4-13.1-5.8c-5.7-1.8-10.1-3.3-13.1-4.6c-3-1.3-6.4-3.1-10.3-5.6c-7.8-4.9-11.7-12.1-11.7-21.7
		c0-9.6,3.9-17.4,11.6-23.4c7.7-6,17.6-9,29.8-9c12.2,0,24.4,4.1,36.6,12.3l-10.8,19.2c-9-6.2-17.9-9.2-26.9-9.2
		c-8.9,0-13.4,2.4-13.4,7.3c0,2.7,1.4,4.8,4.2,6.4c2.8,1.5,7.5,3.3,14.1,5.4c6.5,2.1,11.2,3.6,14,4.7c2.8,1.1,6.1,2.8,9.9,5.1
		C885,680.4,888.6,687.7,888.6,697.9z"/>
	<path fill="#616262" d="M939.6,674.3v55.8h-28.9V587.3h28.9v50.8c8.7-8.9,18.5-13.3,29.4-13.3c10.8,0,20,3.9,27.4,11.5
		c7.4,7.7,11.2,18,11.2,30.8v62.9h-28.9v-56.6c0-15.9-5.8-23.9-17.5-23.9c-5.8,0-10.8,2.1-15.1,6.3
		C941.8,660.1,939.6,666.2,939.6,674.3z"/>
	<path fill="#616262" d="M1137.3,678.3c0,15-5.2,27.7-15.6,37.9c-10.4,10.3-23.5,15.4-39.2,15.4s-28.8-5.1-39.2-15.4
		c-10.4-10.3-15.6-22.9-15.6-37.9c0-15,5.2-27.7,15.6-38c10.4-10.3,23.5-15.5,39.2-15.5s28.8,5.2,39.2,15.5
		C1132.1,650.7,1137.3,663.3,1137.3,678.3z M1056.8,678.3c0,8.5,2.4,15.4,7.2,20.7c4.8,5.3,11,8,18.5,8c7.5,0,13.7-2.7,18.5-8
		c4.8-5.3,7.2-12.2,7.2-20.7c0-8.5-2.4-15.4-7.2-20.8c-4.8-5.4-11-8.1-18.5-8.1c-7.5,0-13.7,2.7-18.5,8.1
		C1059.2,663,1056.8,669.9,1056.8,678.3z"/>
	<path fill="#616262" d="M1218.9,624.8c12.1,0,22.8,5,32.2,15.1c9.4,10.1,14.1,22.7,14.1,38c0,15.3-4.7,28-14.1,38.3
		c-9.4,10.3-20.5,15.4-33.1,15.4c-12.6,0-22.8-5.1-30.5-15.2v51h-28.9V626.6h28.9v11.6C1196.4,629.3,1206.8,624.8,1218.9,624.8z
		 M1187.1,678.4c0,8.4,2.3,15.3,7,20.6c4.7,5.3,10.4,8,17,8c6.7,0,12.5-2.7,17.5-8c5-5.3,7.5-12.2,7.5-20.5s-2.4-15.3-7.3-21
		c-4.9-5.6-10.7-8.5-17.5-8.5c-6.8,0-12.5,2.8-17.2,8.4C1189.5,663,1187.1,670,1187.1,678.4z"/>
</g>
<path fill="#616262" d="M1262.6,424.5c0,41-15,73.9-45.3,98.6c-6,4.9-12.4,9.4-19.1,13.3c-2.9,1.7-5.8,3.4-8.8,4.9
	c0,0-2.6,1.4-8.2,3.3c-4.1,1.4-9.8,3-17.2,4.5c-8,1.6-20.3,4.3-32.5,5.2c-3.8,0.3-7.7,0.5-11.9,0.7c-1,0-1.9-0.4-2.3-1.1
	c-1-1.3-0.9-3.4,0.9-4.3l25.8-13c19.6-9.9,29.9-31.9,25-53.4c-0.8-3.6-1.8-7.1-3-10.6l-13.3-39.2c-0.1-0.7-0.4-1.4-0.7-1.9
	c-2-5.4-5.9-10.4-11.6-15.2c0,0,0,0,0,0c-1.5-1.3-3.1-2.5-4.9-3.7c-12.2-8.1-29.7-15.9-52.6-23.2c-22.9-7.2-40.5-13.4-52.6-18.5
	c-12.2-5.1-26-12.7-41.5-22.5c-31.4-19.5-47.1-48.5-47.1-87c0-38.4,15.5-69.6,46.4-93.9c31-24.2,70.9-36.3,119.9-36.3
	c48.9,0,97.9,16.4,147,49.5l-43.4,77.4c0,0,0,0,0,0c-36-24.7-72.1-37-107.9-37c-8.7,0-16.3,0.6-22.8,1.7c-20.7,3.6-31,12.7-31,27.6
	c0,10.9,5.7,19.3,17,25.6c8.3,4.6,20.7,9.7,37.3,15.3c5.8,2.1,12.3,4.2,19.2,6.4c26.3,8.3,44.9,14.5,56.1,18.9
	c11,4.4,24.3,11.2,39.8,20.4c9.7,5.8,17.7,13,24,21.6c11.3,14.8,17.7,33.6,19.1,56.4C1262.5,417.8,1262.6,421.1,1262.6,424.5z"/>
<path fill="#616262" d="M892.3,137.9H771.6l-81.2,251.5l-81.2-251.5H496.9l-81.2,251.5l-81.2-251.5H214.5l141.6,416.2h119.9
	l77.4-226.7L630,554.1h114.4h6.3h79.8c3.2,0,3.6-4.5,0.6-5.2l-25.6-5.5c-9.3-2-17.5-7.6-22.6-15.7c-9.8-15.3-12.1-32.6-5.7-51.4
	L892.3,137.9z"/>
<path fill="#58C1EF" d="M1192.1,283c-3.7,12.9-32.3,9.4-63.4,0.5c-31.1-8.9-53-20-49.3-32.9c3.7-12.9,31.9-16.1,63.1-7.2
	C1173.6,252.4,1195.8,270.1,1192.1,283z"/>
</svg>
